<svg width="465" height="350" viewBox="0 0 465 350" fill="none" xmlns="http://www.w3.org/2000/svg">
<path d="M300.461 158.967C300.461 158.967 323.097 195.243 344.729 215.229C366.361 235.214 391.541 255.688 376.292 293.285C361.042 330.883 316.097 346.28 235.723 344.315C155.35 342.35 126.971 341.922 109.344 302.05C91.7173 262.177 150.383 253.235 190.456 241.113C230.529 228.99 300.461 158.967 300.461 158.967Z" fill="#EDE6FA"/>
<path opacity="0.49" d="M304.327 238.16C304.327 238.16 315.351 280.713 276.046 290.813C236.742 300.918 163.402 299.43 135.792 279.77C108.182 260.11 304.327 238.16 304.327 238.16Z" fill="#BCACE1"/>
<path d="M406.647 311.825C410.538 309.428 412.394 304.177 410.872 299.869C408.381 292.827 401.941 295.201 397.364 291.502C391.973 287.149 398.492 280.3 398.132 275.159C397.739 269.503 392.647 264.04 391.113 258.573C387.596 246.008 401.88 255.385 405.954 253.92C407.657 253.307 408.774 251.596 409.168 249.824C410.167 245.307 408.267 241.658 410.739 237.384C413.128 233.257 416.656 231.395 415.638 225.791C415.063 222.619 413.105 219.711 413.154 216.486C413.17 215.562 413.431 214.525 414.237 214.074C414.851 213.73 415.615 213.824 416.278 214.055C418.477 214.828 419.924 216.88 421.695 218.398C423.467 219.916 426.314 220.855 428.014 219.257C429.146 218.193 429.256 216.475 429.487 214.937C429.899 212.166 431.845 210.243 434.261 211.844C436.892 213.59 435.885 220.461 435.487 222.926C434.859 226.833 433.905 230.891 435.067 234.677C436.986 240.939 442.234 233.923 444.52 231.849C446.394 230.149 449.525 229.131 451.323 230.906C454.905 234.438 449.147 239.159 448.389 242.506C448.026 244.1 448.495 246.008 449.911 246.826C454.057 249.226 457.559 244.948 458.187 251.335C458.619 255.711 454.659 259.883 457.116 264.259C459.262 268.083 466.406 269.707 463.582 275.072C461.848 278.365 454.382 278.218 454.776 282.905C455.034 285.96 459.626 287.345 459.63 290.412C459.633 292.721 456.945 294.084 454.64 294.202C452.334 294.319 449.904 293.781 447.78 294.682C445.368 295.705 443.971 298.669 444.717 301.183C445.368 303.367 447.401 305.355 446.761 307.543C445.993 310.174 442.347 310.269 439.64 309.849C428.578 308.118 416.732 306.964 406.647 311.825Z" fill="#FFA601"/>
<path d="M427.537 310.734C427.143 310.734 426.829 310.416 426.829 310.026V260.67C426.829 260.28 427.147 259.962 427.537 259.962C427.931 259.962 428.245 260.28 428.245 260.67V310.023C428.245 310.416 427.931 310.734 427.537 310.734Z" fill="white"/>
<path d="M427.537 291.525C427.378 291.525 427.223 291.472 427.09 291.366C426.787 291.12 426.738 290.673 426.988 290.367L439.932 274.409C440.182 274.103 440.628 274.061 440.931 274.307C441.234 274.553 441.283 275 441.033 275.306L428.09 291.264C427.946 291.434 427.745 291.525 427.537 291.525Z" fill="white"/>
<path d="M427.537 278.047C427.374 278.047 427.211 277.994 427.079 277.881L411.652 264.899C411.353 264.646 411.315 264.199 411.565 263.9C411.818 263.601 412.265 263.563 412.564 263.813L427.991 276.794C428.29 277.048 428.328 277.495 428.078 277.794C427.938 277.964 427.738 278.047 427.537 278.047Z" fill="white"/>
<path d="M404.489 304.908C406.518 318.397 408.347 332.507 411.761 345.523C412.045 346.605 412.378 347.741 413.067 348.438C413.881 349.259 414.987 349.274 416.005 349.252C421.896 349.115 427.798 349.494 433.689 349.46C439.258 349.43 443.858 349.88 444.441 340.631C444.641 337.425 445.149 304.904 448.105 304.904C448.094 304.908 404.489 304.908 404.489 304.908Z" fill="#41ABFC"/>
<path d="M444.123 312.968H408.471C404.038 312.968 400.408 309.341 400.408 304.904C400.408 300.471 404.034 296.84 408.471 296.84H444.123C448.556 296.84 452.187 300.467 452.187 304.904C452.187 309.341 448.556 312.968 444.123 312.968Z" fill="#8CD9FE"/>
<path d="M272.268 16.8394C272.268 16.8394 276.94 27.2202 269.641 33.6107C262.341 40.0012 252.419 34.9433 242.788 40.7962C233.156 46.6491 234.194 53.5848 238.612 69.0273C243.867 87.3962 249.606 86.8472 254.766 88.1761C259.926 89.5087 261.467 103.884 262.05 110.539C262.633 117.195 263.508 121.719 245.12 130.771C226.732 139.823 236.764 153.667 238.608 171.612C240.649 191.461 217.097 202.91 213.012 207.703C208.927 212.496 199.292 213.294 194.037 203.179C188.783 193.063 215.484 185.616 213.152 169.379C210.816 153.141 196.559 142.215 216.699 126.243C236.84 110.27 232.861 97.4968 226.149 84.4546C219.437 71.4123 216.226 66.3545 221.769 49.5832C227.311 32.8119 221.477 37.8698 228.772 24.5588C236.075 11.2515 262.637 -3.39213 272.268 16.8394Z" fill="#6F609E"/>
<path d="M259.566 95.6265L261.032 122.956L282.425 131.206C282.425 131.206 269.561 112.383 271.742 95.6227C273.922 78.8666 259.566 95.6265 259.566 95.6265Z" fill="#D4A79A"/>
<path d="M309.146 184.287C309.146 184.287 307.726 181.686 303.471 168.33C299.216 154.973 297.679 150.006 291.769 137.082C285.859 124.157 273.563 116.081 273.563 116.081L258.196 115.252C258.196 115.252 256.303 115.37 247.44 122.699C238.574 130.029 230.063 150.953 230.063 150.953L226.281 192.563L252.881 212.185L271.681 218.962C270.776 217.754 270.046 216.474 269.591 215.119C266.442 205.757 276.997 153.906 277.352 149.295C277.708 144.684 286.639 188.66 286.639 188.66L294.374 186.415L299.681 203.326L303.001 186.059L309.146 184.287Z" fill="#FF4956"/>
<path d="M300.753 206.749L299.678 203.326L297.963 212.246L300.753 206.749Z" fill="url(#paint0_linear)"/>
<path d="M286.631 188.66C286.631 188.66 277.701 144.684 277.345 149.295C276.989 153.906 266.434 205.757 269.584 215.119C270.038 216.475 270.769 217.754 271.674 218.962L291.015 225.932L297.962 212.242L299.677 203.323L294.37 186.411L286.631 188.66Z" fill="#FDC510"/>
<path d="M286.631 188.66C286.631 188.66 277.701 144.684 277.345 149.295C276.989 153.906 266.434 205.757 269.584 215.119C270.038 216.475 270.769 217.754 271.674 218.962L291.015 225.932L297.962 212.242L299.677 203.323L294.37 186.411L286.631 188.66Z" fill="#D7384E"/>
<path d="M129.89 172.123L238.491 177.363L259.567 197.776L158.129 195.221L129.89 172.123Z" fill="#616F97"/>
<path d="M232.297 180.657L134.251 174.035C131.601 174.24 129.303 172.457 129.118 170.045L109.359 117.036C109.174 114.628 111.169 112.508 113.815 112.303L211.861 118.929C214.511 118.724 216.809 120.507 216.995 122.919L236.753 175.928C236.942 178.332 234.943 180.452 232.297 180.657Z" fill="#EDE6FA"/>
<path d="M183.109 150.928C184.274 145.569 180.15 140.123 173.898 138.764C167.646 137.405 161.633 140.648 160.468 146.007C159.303 151.366 163.428 156.813 169.68 158.171C175.932 159.53 181.945 156.287 183.109 150.928Z" fill="#BCACE1"/>
<path d="M85.2132 266.255L57.4895 306.858L70.1115 317.522L96.5215 273.44C96.5215 273.436 90.468 266.626 85.2132 266.255Z" fill="#D4A79A"/>
<path d="M1.34172 329.505C1.34172 329.505 12.0064 333.147 32.4424 334.661C52.8784 336.179 75.6881 336.936 79.8336 333.904C83.9791 330.871 86.6443 305.086 79.8336 305.086C73.0229 305.086 70.3728 314.944 58.3603 306.146C48.0704 298.608 39.8475 312.82 21.9291 316.61C4.01074 320.4 -3.24673 321.922 1.34172 329.505Z" fill="#FF7B01"/>
<path d="M257.783 222.35C255.334 217.743 242.076 220.34 226.187 214.43C210.294 208.52 200.03 196.107 181.976 181.804C163.921 167.501 165.155 169.981 157.364 169.39C149.573 168.799 139.926 189.841 134.482 200.956C123.022 224.36 108.519 245.273 86.8525 258.88C80.2689 263.014 51.2618 278.74 46.4159 285.328C36.2093 299.191 86.3906 299.309 99.5124 300.91C112.502 302.493 119.786 295.114 125.04 283.454C131.037 270.154 137.598 257.138 144.151 244.123C147.43 237.611 150.723 231.103 153.938 224.557C155.323 221.737 158.322 211.5 161.665 210.224C171.947 206.31 185.519 237.653 188.404 244.694C194.215 258.88 215.488 275.431 230.945 277.086C246.403 278.74 258.029 268.458 263.099 253.443C268.172 238.429 257.783 222.35 257.783 222.35Z" fill="#40B3B7"/>
<path d="M138.098 269.332L110.374 309.936L122.996 320.6L149.406 276.518C149.402 276.514 143.353 269.703 138.098 269.332Z" fill="#EAC2AB"/>
<path d="M54.2262 332.582C54.2262 332.582 64.8909 336.224 85.3269 337.739C105.763 339.257 128.573 340.014 132.718 336.982C136.864 333.949 139.529 308.164 132.718 308.164C125.907 308.164 123.257 318.022 111.245 309.224C100.955 301.686 92.732 315.898 74.8136 319.688C56.8952 323.477 49.634 324.999 54.2262 332.582Z" fill="#FFA601"/>
<path d="M297.913 222.35C295.574 217.743 282.899 220.34 267.71 214.43C252.521 208.52 242.708 196.107 225.449 181.804C208.189 167.501 209.37 169.981 201.923 169.39C194.477 168.799 185.254 189.841 180.053 200.956C164.05 235.146 131.117 258.092 101.144 279.202C99.2815 280.512 97.1918 282.333 97.5779 284.578C97.7748 285.721 98.5925 286.645 99.4292 287.452C110.548 298.184 131.378 303.011 146.347 302.311C161.419 301.607 169.6 289.03 175.294 276.594C185.478 254.344 195.427 231.417 207.799 210.3C212.448 202.372 227.266 234.378 228.553 237.357C236.227 255.151 251.461 274.758 272.264 277.086C287.04 278.74 298.152 268.458 303.002 253.443C307.844 238.429 297.913 222.35 297.913 222.35Z" fill="#8EE9DD"/>
<path d="M240.452 37.4495C240.452 37.4495 229.026 45.8767 233.573 64.806C238.12 83.7352 252.26 99.9007 257.965 98.7612C273.741 95.6114 279.272 84.4621 284.742 74.8952C291.451 63.1629 278.132 34.5419 278.132 34.5419L265.552 27.7577L240.452 37.4495Z" fill="#EAC2AB"/>
<path d="M263.22 29.0865C263.22 29.0865 271.159 31.748 278.136 42.9276C285.113 54.1072 280.536 55.9319 280.536 70.9201C280.536 75.3003 279.715 79.6162 277.341 83.349C275.618 86.0597 273.161 88.1949 271.378 90.8526C269.126 94.2068 268.406 97.9927 268.588 101.994C268.971 110.456 270.322 117.482 277.837 122.26C285.961 127.424 289.751 134.322 291.886 143.642C294.442 154.803 312.841 161.118 319.262 156.859C325.682 152.6 306.53 155.443 310.327 137.078C314.121 118.709 315.423 110.914 304.33 105.81C293.238 100.707 298.538 99.3594 304.376 88.1798C310.214 77.0002 295.165 77.1365 301.105 57.6772C307.961 35.2158 301.748 10.1838 268.179 17.1043C234.61 24.0249 263.22 29.0865 263.22 29.0865Z" fill="#6F609E"/>
<path d="M255.046 50.4614C264.677 44.6047 262.345 39.9974 269.644 33.6107C276.94 27.2202 272.272 16.8394 272.272 16.8394C262.641 -3.39218 236.079 11.2477 228.78 24.5587C221.481 37.8697 227.322 32.8118 221.776 49.5831C217.952 61.1413 218.293 67.1381 221.072 74.0208L236.772 80.3772C230.415 56.2614 247.8 54.8644 255.046 50.4614Z" fill="#6F609E"/>
<path d="M294.131 206.037C294.131 206.037 294.131 212.537 291.648 211.356C289.164 210.175 265.878 195.633 262.803 192.207C259.729 188.777 252.517 176.367 252.165 173.884C251.809 171.4 252.994 171.283 248.145 171.991C243.299 172.699 234.55 175.421 235.852 176.954C237.151 178.491 240.815 177.427 240.815 177.427C240.815 177.427 236.522 180.146 238.608 180.501C240.694 180.857 246.842 179.672 246.842 181.565C246.842 183.458 246.486 189.841 247.906 193.033C249.326 196.224 251.098 197.288 255.709 198.352C260.32 199.416 261.134 199.06 264.924 202.963C268.713 206.866 289.872 225.659 292.59 226.605C295.309 227.552 296.49 229.206 299.803 223.175C303.115 217.145 305.478 212.537 305.712 203.08C305.947 193.623 304.883 184.522 304.883 184.522L294.362 186.415C294.37 186.415 295.313 197.053 294.131 206.037Z" fill="#EAC2AB"/>
<path d="M328.166 85.9537C330.051 77.3144 334.261 68.7016 337.35 60.4068C338.993 56.0001 342.601 50.0563 342.969 45.3353C343.09 43.7869 344.566 42.6398 346.266 42.7723L409.24 38.517C410.94 38.6495 412.223 40.0087 412.102 41.5571L399.412 75.6032C399.291 77.1516 397.814 78.2987 396.114 78.1662L345.327 81.4106C342.215 83.2998 337.278 85.1889 334.163 87.0705C330.706 89.1565 326.436 93.8812 328.166 85.9537Z" fill="#EDE6FA"/>
<path d="M373.74 64.276L394.202 63.3864C395.58 63.3258 396.656 62.1522 396.595 60.7741C396.534 59.3961 395.361 58.3209 393.983 58.3815L373.52 59.2711C372.142 59.3317 371.067 60.5053 371.128 61.8834C371.188 63.2576 372.362 64.3328 373.74 64.276Z" fill="white"/>
<path d="M359.024 55.7994L396.095 54.1904C397.473 54.1299 398.549 52.9562 398.488 51.5782C398.427 50.2002 397.254 49.125 395.876 49.1855L358.805 50.7945C357.427 50.8551 356.352 52.0287 356.412 53.4068C356.473 54.781 357.646 55.86 359.024 55.7994Z" fill="white"/>
<path d="M143.811 93.6919C141.63 83.6897 136.757 73.7216 133.176 64.1207C131.276 59.0212 127.096 52.1423 126.672 46.6755C126.532 44.8848 124.825 43.556 122.856 43.7112L49.9632 38.7858C47.9946 38.9373 46.5106 40.5122 46.6506 42.3029L61.3397 81.7135C61.4798 83.5042 63.1872 84.833 65.1558 84.6778L123.942 88.4372C127.547 90.6216 133.256 92.8136 136.867 94.9905C140.869 97.402 145.813 102.873 143.811 93.6919Z" fill="#EDE6FA"/>
<path d="M91.0586 68.5994L67.3744 67.5696C65.7805 67.5015 64.535 66.1386 64.6031 64.5447C64.6713 62.9509 66.0342 61.7053 67.628 61.7735L91.3123 62.8032C92.9061 62.8714 94.1516 64.2343 94.0835 65.8281C94.0116 67.422 92.6524 68.6675 91.0586 68.5994Z" fill="white"/>
<path d="M108.091 58.7903L65.1786 56.9276C63.5847 56.8595 62.3392 55.4966 62.4073 53.9028C62.4755 52.3089 63.8384 51.0634 65.4322 51.1315L108.345 52.9941C109.939 53.0623 111.184 54.4252 111.116 56.019C111.044 57.6129 109.685 58.8584 108.091 58.7903Z" fill="white"/>
<g opacity="0.72">
<path d="M183.831 35.3483C182.426 28.9086 179.288 22.4916 176.986 16.3093C175.763 13.027 173.071 8.59753 172.799 5.07669C172.708 3.92201 171.61 3.0702 170.342 3.16863L123.409 -0.00012207C122.14 0.0983099 121.186 1.11292 121.273 2.26381L130.73 27.6365C130.821 28.7912 131.919 29.643 133.187 29.5446L171.038 31.9638C173.359 33.3721 177.035 34.7804 179.36 36.1812C181.938 37.7372 185.118 41.258 183.831 35.3483Z" fill="#EDE6FA"/>
<path d="M149.864 19.1903L134.615 18.5278C133.589 18.4823 132.786 17.6078 132.831 16.5818C132.877 15.5559 133.751 14.7533 134.777 14.7987L150.027 15.4612C151.053 15.5067 151.855 16.3812 151.81 17.4072C151.764 18.4331 150.89 19.2357 149.864 19.1903Z" fill="white"/>
<path d="M160.832 12.8756L133.202 11.6755C132.176 11.63 131.374 10.7555 131.419 9.72955C131.465 8.70359 132.339 7.90099 133.365 7.94642L160.994 9.14653C162.02 9.19196 162.823 10.0665 162.777 11.0925C162.732 12.1184 161.858 12.921 160.832 12.8756Z" fill="white"/>
</g>
<path d="M186.689 72.0597L163.005 71.0299C161.411 70.9618 160.165 69.5989 160.234 68.005C160.302 66.4112 161.665 65.1657 163.258 65.2338L186.943 66.2636C188.536 66.3317 189.782 67.6946 189.714 69.2884C189.642 70.8823 188.279 72.1278 186.689 72.0597Z" fill="#BCACE1"/>
<path d="M189.051 83.633L165.367 82.6032C163.773 82.5351 162.528 81.1722 162.596 79.5783C162.664 77.9845 164.027 76.739 165.621 76.8071L189.305 77.8369C190.899 77.905 192.144 79.2679 192.076 80.8617C192.004 82.4556 190.645 83.7049 189.051 83.633Z" fill="#BCACE1"/>
<path d="M193.25 95.5168L169.566 94.487C167.972 94.4189 166.726 93.056 166.794 91.4621C166.863 89.8683 168.225 88.6228 169.819 88.6909L193.504 89.7207C195.097 89.7888 196.343 91.1517 196.275 92.7455C196.207 94.3394 194.844 95.5849 193.25 95.5168Z" fill="#BCACE1"/>
<defs>
<linearGradient id="paint0_linear" x1="312.305" y1="170.019" x2="264.332" y2="153.054" gradientUnits="userSpaceOnUse">
<stop stop-color="#A7ADFF"/>
<stop offset="1" stop-color="#E3E5FC"/>
</linearGradient>
</defs>
</svg>
